<svg width="19" height="21" viewBox="0 0 19 21" fill="none" xmlns="http://www.w3.org/2000/svg">
<g id="Inner Plugin Iframe">
<path id="Vector" d="M9.5 19.2949C7.85595 19.2949 6.24881 18.7817 4.88183 17.8203C3.51484 16.8588 2.44941 15.4923 1.82026 13.8934C1.1911 12.2946 1.02649 10.5352 1.34723 8.83789C1.66797 7.14055 2.45965 5.58145 3.62218 4.35774C4.7847 3.13403 6.26585 2.30068 7.87832 1.96305C9.49078 1.62543 11.1621 1.79871 12.6811 2.46098C14.2 3.12325 15.4982 4.24476 16.4116 5.68369C17.325 7.12262 17.8125 8.81434 17.8125 10.5449C17.8125 12.8656 16.9367 15.0912 15.3778 16.7321C13.8189 18.3731 11.7046 19.2949 9.5 19.2949ZM9.5 3.04493C8.09081 3.04493 6.71327 3.48479 5.54157 4.3089C4.36987 5.13301 3.45664 6.30435 2.91736 7.6748C2.37809 9.04525 2.23699 10.5532 2.51191 12.0081C2.78683 13.463 3.46542 14.7993 4.46187 15.8482C5.45832 16.8971 6.72787 17.6114 8.10999 17.9008C9.4921 18.1902 10.9247 18.0417 12.2266 17.474C13.5285 16.9064 14.6413 15.9451 15.4242 14.7117C16.2071 13.4783 16.625 12.0283 16.625 10.5449C16.625 8.5558 15.8743 6.64815 14.5381 5.24162C13.2019 3.8351 11.3897 3.04493 9.5 3.04493Z" fill="#4267EB"/>
<path id="Vector_2" d="M12.2253 14.2949L8.90625 10.8012V4.91992H10.0938V10.2824L13.0625 13.4137L12.2253 14.2949Z" fill="#4267EB"/>
</g>
</svg>
