<svg width="22" height="22" viewBox="0 0 22 22" fill="none" xmlns="http://www.w3.org/2000/svg">
<path d="M16.922 11.1784C16.8985 8.51584 19.0571 7.2375 19.1525 7.17825C17.9394 5.36917 16.0481 5.11703 15.3773 5.08677C13.7669 4.92162 12.2346 6.05372 11.4201 6.05372C10.6057 6.05372 9.34317 5.11451 8.01134 5.14098C6.25371 5.16493 4.63967 6.18105 3.73486 7.77581C1.91287 10.9956 3.26699 15.7686 5.04565 18.3794C5.91209 19.6578 6.94562 21.0937 8.30345 21.042C9.61424 20.9903 10.1093 20.181 11.6912 20.181C13.2731 20.181 13.7174 21.042 15.1025 21.0206C16.5098 20.9903 17.4023 19.712 18.2613 18.4337C19.2564 16.9498 19.6698 15.5139 19.6934 15.4383C19.6624 15.4269 16.948 14.3654 16.9208 11.1784H16.922Z" fill="white"/>
<path d="M14.3189 3.35847C15.0418 2.46968 15.5282 1.23169 15.3945 0C14.3561 0.0403419 13.0972 0.707245 12.3534 1.59225C11.6837 2.3827 11.0958 3.6459 11.2555 4.85112C12.4128 4.94063 13.5998 4.24977 14.3189 3.35847Z" fill="white"/>
</svg>
