<svg width="69" height="90" viewBox="0 0 69 90" fill="none" xmlns="http://www.w3.org/2000/svg">
<path fill-rule="evenodd" clip-rule="evenodd" d="M65.2051 43.3333C67.5982 38.9744 68.7948 34.188 68.7948 28.9744C68.7948 23.3333 67.5555 18.3333 65.0769 13.9744C62.5982 9.61538 58.8803 6.19658 53.923 3.71795C48.9658 1.23932 42.8974 0 35.7179 0H25.7051C11.6218 0 0.205078 11.4167 0.205078 25.5V90H22.1282V85.3313C22.178 82.8892 24.1732 80.9249 26.6272 80.9249H29.184C31.8015 80.9249 33.7513 80.3042 35.0333 79.0627C36.3154 77.8212 36.9564 76.067 36.9564 73.7999C36.9564 71.5329 36.3154 69.7786 35.0333 68.5371C33.7513 67.2957 31.8015 66.6749 29.184 66.6749H22.1282V62.0963C22.177 59.7028 24.0947 57.7683 26.4814 57.6923H35.7179C43.0683 57.6923 49.2222 56.3675 54.1794 53.7179C59.1367 51.0684 62.8119 47.6068 65.2051 43.3333ZM43.4102 37.3077C41.3589 39.2735 38.2393 40.2564 34.0512 40.2564H22.1282V29.6154C22.1282 23.0304 27.4663 17.6923 34.0512 17.6923C38.2393 17.6923 41.3589 18.6752 43.4102 20.641C45.4615 22.6068 46.4871 25.3846 46.4871 28.9744C46.4871 32.5641 45.4615 35.3419 43.4102 37.3077Z" fill="#1562FC"/>
<ellipse cx="48.2048" cy="73.7998" rx="6.75" ry="6.75" fill="#00E6BD"/>
</svg>
