<svg width="45" height="45" viewBox="0 0 45 45" fill="none" xmlns="http://www.w3.org/2000/svg">
<path fill-rule="evenodd" clip-rule="evenodd" d="M34.3475 19.4133C34.3475 19.4805 34.347 19.5475 34.3459 19.6144C34.261 26.8597 29.5897 33.2839 22.4036 37.3333H22.4008H22.4004H22.3975C15.1451 33.2465 10.4541 26.7409 10.4541 19.4135V19.4133H10.4542C10.4542 12.8154 15.8029 7.46667 22.4008 7.46667C28.9988 7.46667 34.3475 12.8154 34.3475 19.4133ZM22.4007 23.8933C24.8749 23.8933 26.8807 21.8876 26.8807 19.4133C26.8807 16.9391 24.8749 14.9333 22.4007 14.9333C19.9264 14.9333 17.9207 16.9391 17.9207 19.4133C17.9207 21.8876 19.9264 23.8933 22.4007 23.8933Z" fill="#1562FC"/>
<circle cx="22.4009" cy="19.4133" r="4.48" fill="#66FFE3"/>
</svg>
