<svg width="32" height="32" viewBox="0 0 32 32" fill="none" xmlns="http://www.w3.org/2000/svg">
<path fill-rule="evenodd" clip-rule="evenodd" d="M16.0001 5.33334C20.713 5.33334 24.5335 9.15385 24.5335 13.8667V13.9228C24.5097 19.1338 21.1644 23.7579 16.0026 26.6667H16.0001H15.9977C10.836 23.758 7.49081 19.1341 7.4668 13.9233V13.8667C7.4668 9.15385 11.2873 5.33334 16.0001 5.33334ZM16.0003 17.0667C17.7676 17.0667 19.2003 15.634 19.2003 13.8667C19.2003 12.0994 17.7676 10.6667 16.0003 10.6667C14.2329 10.6667 12.8003 12.0994 12.8003 13.8667C12.8003 15.634 14.2329 17.0667 16.0003 17.0667Z" fill="#1562FC"/>
<circle cx="15.9998" cy="13.8667" r="3.2" fill="white"/>
</svg>
